<?xml version="1.0" encoding="UTF-8"?>
<svg viewBox="0 0 440.97 440.97" xmlns="http://www.w3.org/2000/svg"><path d="m376.39 155.9v-91.322h-91.326l-64.579-64.578-64.578 64.578h-91.327v91.322l-64.579 64.583 64.579 64.579v91.327h91.327l64.578 64.578 64.578-64.578h91.326v-91.326l64.579-64.579zm-28.346 117.42v74.723h-74.723l-52.836 52.836-52.836-52.836h-74.723v-74.723l-28.346-28.345-24.491-24.492 52.837-52.837v-74.721h74.722l52.837-52.837 52.837 52.837h74.722v74.722l52.837 52.837-24.491 24.491z"/><path d="m348.04 167.65h-74.722v-74.721l-52.837 52.838-52.837-52.838v74.722h-74.722l52.837 52.837-52.837 52.836h74.723v74.722l52.836-52.842 52.836 52.839v-74.718h74.723l-52.843-52.838zm-68.5 77.3h-34.6v34.6l-24.459-24.466-24.463 24.464v-34.6h-34.6l24.464-24.464-24.461-24.46h34.6v-34.6l24.464 24.464 24.464-24.464v34.6h34.6l-24.472 24.464z"/></svg>
