<?xml version="1.0" encoding="UTF-8"?>
<svg width="480" height="660" version="1.1" viewBox="0 0 480 660" xmlns="http://www.w3.org/2000/svg"><path d="m240 468.2-66.809-66.81h-94.481v-94.48l-66.81-66.81 66.81-66.81v-94.481h94.482l66.808-66.809 66.809 66.809h94.481v94.481l66.81 66.81-66.81 66.811v94.481h-94.481zm-150.52-77.579h88.172l62.347 62.347 62.348-62.348h88.171v-88.171l62.349-62.349-62.349-62.348v-88.171h-88.171l-62.348-62.348-62.347 62.348h-88.172v88.172l-62.348 62.347 62.348 62.348zm150.52 37.493-55.066-55.067h-77.879v-77.879l-55.068-55.068 55.068-55.067v-77.877h77.878l55.067-55.068 55.067 55.068h77.877v77.876l55.068 55.068-55.067 55.068v77.878h-77.878zm-122.17-65.839h71.573l50.6 50.605 50.605-50.605h71.567v-71.568l50.608-50.607-50.606-50.606v-71.567h-71.567l-50.607-50.606-50.606 50.606h-71.567v71.567l-50.606 50.606 50.605 50.606z"/><path d="m290.61 362.28-50.607-50.609-50.607 50.61v-71.571h-71.571l50.609-50.609-50.609-50.607h71.571v-71.57l50.607 50.609 50.608-50.609v71.57h71.57l-50.609 50.607 50.609 50.608h-71.571zm-150.18-80.934h58.329v58.329l41.244-41.245 41.244 41.246v-58.329h58.329l-41.245-41.246 41.246-41.245h-58.328v-58.328l-41.246 41.246-41.245-41.246v58.328h-58.328l41.246 41.245zm125.52 21.394-25.945-25.946-25.945 25.946v-36.693h-36.693l25.946-25.946-25.946-25.945h36.693v-36.692l25.945 25.947 25.946-25.946v36.692h36.692l-25.946 25.944 25.946 25.946h-36.693zm-65.978-46.056h23.451v23.451l16.582-16.583 16.582 16.583v-23.45h23.451l-16.582-16.584 16.583-16.582h-23.45v-23.45l-16.584 16.583-16.583-16.583v23.45h-23.45l16.583 16.582z"/><path d="m44.6 598.75 25.984 41.984 25.984-41.984 5.76 50.304h19.072l-13.312-94.08-37.504 57.856-37.504-57.856-13.312 94.08h19.072z"/><path d="m150.24 559.45v89.6h18.56v-89.6z"/><path d="m193.66 575.96h24.064v73.088h18.304v-73.088h24.192v-16.512h-66.56z"/><path d="m285.09 559.45v89.6h18.304v-32.512h7.936l20.992 32.512h21.632l-24.32-34.688c12.16-4.096 18.944-13.696 18.944-26.368 0-17.024-12.288-28.544-33.408-28.544zm28.928 15.616c9.6 0 15.744 4.864 15.744 13.44s-6.144 13.44-15.744 13.44h-10.624v-26.88z"/><path d="m439.5 649.05h20.736l-45.44-94.848-45.44 94.848h20.608l9.344-20.352h30.848zm-24.704-60.544 11.136 25.728h-22.272z"/></svg>
