<?xml version="1.0" encoding="UTF-8"?>
<svg viewBox="0 0 456.2 456.2" xmlns="http://www.w3.org/2000/svg"><defs><linearGradient id="linearGradient-1" x1="50.004%" x2="50.575%" y1=".74762%" y2="97.529%"><stop stop-color="#7F50EF" offset="0"/><stop stop-color="#71D2D7" offset=".2048"/><stop stop-color="#759CD3" offset=".49441"/><stop stop-color="#FCE8F4" offset=".78492"/><stop stop-color="#7260EC" offset="1"/></linearGradient><radialGradient id="radialGradient-2" cy="0%" r="100%"><stop stop-color="#FFFA00" offset="0"/><stop stop-color="#FFFA00" offset=".4138"/><stop stop-color="#CE94C4" offset="1"/></radialGradient></defs><path d="M228.1,456.2l-66.809-66.81H66.81V294.91L0,228.1l66.81-66.81V66.809h94.482L228.1,0l66.809,66.809h94.481V161.29L456.2,228.1l-66.81,66.811v94.481H294.909ZM77.581,378.621h88.172L228.1,440.968l62.348-62.348h88.171V290.449L440.968,228.1l-62.349-62.348V77.581H290.448L228.1,15.233,165.753,77.581H77.581v88.172L15.233,228.1l62.348,62.348ZM228.1,416.114l-55.066-55.067H95.155V283.168L40.087,228.1l55.068-55.067V95.156h77.878L228.1,40.088l55.067,55.068h77.877v77.876L416.112,228.1l-55.067,55.068v77.878H283.167ZM105.927,350.275H177.5L228.1,400.88l50.605-50.605h71.567V278.707L400.88,228.1l-50.606-50.606V105.927H278.707L228.1,55.321l-50.606,50.606H105.927v71.567L55.321,228.1l50.605,50.606Z" fill="url(#linearGradient-1)"/><path d="m278.71 350.28-50.607-50.609-50.607 50.61v-71.571h-71.571l50.609-50.609-50.609-50.607h71.571v-71.57l50.607 50.609 50.608-50.609v71.57h71.57l-50.609 50.607 50.609 50.608h-71.571zm-150.18-80.934h58.329v58.329l41.244-41.245 41.244 41.246v-58.329h58.329l-41.245-41.246 41.246-41.245h-58.328v-58.328l-41.246 41.246-41.245-41.246v58.328h-58.328l41.246 41.245zm125.52 21.394-25.945-25.946-25.945 25.946v-36.693h-36.693l25.946-25.946-25.946-25.945h36.693v-36.692l25.945 25.947 25.946-25.946v36.692h36.692l-25.946 25.944 25.946 25.946h-36.693zm-65.978-46.056h23.451v23.451l16.582-16.583 16.582 16.583v-23.45h23.451l-16.582-16.584 16.583-16.582h-23.45v-23.45l-16.584 16.583-16.583-16.583v23.45h-23.45l16.583 16.582z" fill="url(#radialGradient-2)"/></svg>
